<?xml version="1.0" encoding="UTF-8"?><svg id="Layer_1" xmlns="http://www.w3.org/2000/svg" viewBox="0 0 512 512"><g id="g487"><g id="g822"><path id="path1" d="M261.42,232.4l-23.03,62.86h-3.65l.44-57.44s1.33-3.38-1.78-2.67-47.03,13.43-47.03,13.43l35.3-30.67-64.91-33.61,68.64,13.07s.44.44,2.22-.27l-15.03-29.34,26.41,15.38s.53,1.07,1.96,1.07,15.92-47.03,15.92-47.03l3.82,46.68s0,4.71.98,5.33c1.16.53,79.67-57.7,79.67-57.7l2.22.09-69.62,78.24,40.46,32.28s-49.79-11.11-51.21-10.14c-1.51.89-1.78.44-1.78.44Z"/><g id="g632"><path id="path2" d="M72.61,309.46h-11.91l.11,48.58s1.83,13.51-10.99,13.51-10.42-12.83-10.42-12.83l-10.88-.34s-1.72,22.02,21.18,22.02,23.01-20.09,23.01-20.09l-.11-50.85Z"/><path id="path3" d="M83.14,327.17l-.23,51.98,10.88-.11v-51.87h-10.65Z"/><path id="path4" d="M88.63,307.53s-6.53-.68-6.87,6.58c0,0,.23,6.13,6.87,6.24,0,0,6.07,1.02,6.53-7.15-.11,0-1.26-5.56-6.53-5.68Z"/><path id="path5" d="M125.16,325.58c-6.3,0-23.13,2.84-23.47,30.76,0,0,2.86,23.61,26.33,24.18,0,0,25.87-1.7,25.76-27.92s-26.33-27.01-26.33-27.01h-2.29ZM128.13,334.2c13.17.11,13.97,16.8,13.97,16.8.11,21.11-14.31,20.66-14.31,20.66-15,.11-14.31-19.07-14.31-19.07-.8-18.05,14.65-18.39,14.65-18.39Z"/><path id="path6" d="M172.55,347.94l.11,31.21-11.22.11-.11-69.8h11.45l-.11,28.38h34.12l-.46-28.49h11.91l-.11,70.03-12.02-.11v-31.67l-33.54.34Z"/><path id="path7" d="M252.58,324.78s-27.13,1.14-26.68,28.49c0,0,.8,26.79,26.1,26.9,0,0,26.33.45,25.87-30.3,0,.11-1.72-24.4-25.3-25.08ZM252.81,333.98c13.05.45,13.62,18.16,13.62,18.16-.8,19.98-14.65,19.3-14.65,19.3-13.17.23-14.43-16.68-14.43-16.68-.92-21.57,15.46-20.77,15.46-20.77Z"/><path id="path8" d="M287.96,335.45l-9.96-.11v-8.4h10.07l-.34-16.23h11.45l.34,16.23,11.79.34.11,8.17h-12.14l-.11,27.58c.34,3.41,1.37,6.36,4.35,7.6l7.56.11.11,8.29h-9.85s-11.45,1.93-13.05-11.12l-.34-32.46Z"/><path id="path9" d="M357.91,340.45l-9.96.11s-.46-7.15-11.11-7.15c0,0-13.05.79-8.36,9.42l11.22,4.31s21.75,2.84,19.81,17.48c0,0,.11,15.32-20.72,15.78s-23.13-13.85-23.13-13.85l-.34-3.29h10.3s.46,9.08,11.91,8.74c0,0,11.91.11,11.79-7.15-.11-7.38-13.62-8.29-13.62-8.29l-10.76-2.95s-7.9-3.52-8.24-13.51c0,0-.34-14.64,19.92-14.87,20.38-.11,21.29,15.21,21.29,15.21h0Z"/><path id="path10" d="M382.87,335.34l11.79-.11v-8.17h-11.56l.11-15.44h-12.36l.34,15.32-9.96.11.11,8.29,10.07.11-.46,27.69s-.8,15.89,12.71,15.66l10.65-.11.11-7.95h-6.53c-2.29-.57-4.35-1.82-5.04-5.79v-29.62Z"/><path id="path11" d="M421.79,324.78c-22.78,0-21.07,15.78-21.07,15.78l10.65.11s0-7.49,11.56-7.38c11.56.11,9.96,13.73,9.96,13.73l-11.56.11s-22.32-.11-22.78,15.32c-.46,15.44,11.91,17.82,17.97,17.48s13.97-3.06,16.83-8.4l.46,7.49,10.3-.34-.11-35.75s.57-18.16-22.21-18.16ZM433.01,354.63l.11,5.79s-2.4,11.8-15,11.8c0,0-14.77-1.93-5.95-14.87,0,0,6.87-3.29,14.31-2.38l6.53-.34Z"/><path id="path12" d="M453.73,327.17v52.1h11.79l-.11-32.69s1.6-11.12,13.62-11.12l4.35.91.11-10.56s-15.23-2.5-18.55,9.53l-.11-8.63-11.11.45Z"/></g></g></g></svg>